inDegrees=no
num_controls=7
num_derivatives=13
num_iterations=76
num_multipliers=7
num_parameters=0
num_slacks=7
num_states=26
objective=0.334248
objective_accelerations=0.036786
objective_balance=0.001309
objective_effort=0.027044
objective_height=0.267639
objective_ligament=0.001471
solver_duration=784.338512
status=Solve_Succeeded
success=true
DataType=double
version=3
OpenSimVersion=4.5
endheader
time	/jointset/ground_pelvis/pelvis_tilt/value	/jointset/ground_pelvis/pelvis_tx/value	/jointset/ground_pelvis/pelvis_ty/value	/jointset/hip_r/hip_flexion_r/value	/jointset/hip_r/hip_adduction_r/value	/jointset/hip_r/hip_rotation_r/value	/jointset/back/lumbar_extension/value	/jointset/patellofemoral_r/patellar_flexion_r/value	/jointset/knee_r/knee_flexion_r/value	/jointset/knee_r/knee_adduction_r/value	/jointset/knee_r/knee_rotation_r/value	/jointset/ankle_r/ankle_angle_r/value	/jointset/subtalar_r/subtalar_angle_r/value	/jointset/ground_pelvis/pelvis_tilt/speed	/jointset/ground_pelvis/pelvis_tx/speed	/jointset/ground_pelvis/pelvis_ty/speed	/jointset/hip_r/hip_flexion_r/speed	/jointset/hip_r/hip_adduction_r/speed	/jointset/hip_r/hip_rotation_r/speed	/jointset/back/lumbar_extension/speed	/jointset/patellofemoral_r/patellar_flexion_r/speed	/jointset/knee_r/knee_flexion_r/speed	/jointset/knee_r/knee_adduction_r/speed	/jointset/knee_r/knee_rotation_r/speed	/jointset/ankle_r/ankle_angle_r/speed	/jointset/subtalar_r/subtalar_angle_r/speed	/forceset/tau_hip_flexion_r	/forceset/tau_hip_adduction_r	/forceset/tau_hip_rotation_r	/forceset/tau_knee_flexion_r	/forceset/tau_ankle_angle_r	/forceset/tau_subtalar_angle_r	/forceset/tau_lumbar_extension	lambda_cid13_p0	lambda_cid14_p0	lambda_cid14_p1	lambda_cid14_p2	lambda_cid14_p3	lambda_cid14_p4	lambda_cid14_p5	/jointset/ground_pelvis/pelvis_tilt/accel	/jointset/ground_pelvis/pelvis_tx/accel	/jointset/ground_pelvis/pelvis_ty/accel	/jointset/hip_r/hip_flexion_r/accel	/jointset/hip_r/hip_adduction_r/accel	/jointset/hip_r/hip_rotation_r/accel	/jointset/back/lumbar_extension/accel	/jointset/patellofemoral_r/patellar_flexion_r/accel	/jointset/knee_r/knee_flexion_r/accel	/jointset/knee_r/knee_adduction_r/accel	/jointset/knee_r/knee_rotation_r/accel	/jointset/ankle_r/ankle_angle_r/accel	/jointset/subtalar_r/subtalar_angle_r/accel	gamma_cid13_p0	gamma_cid14_p0	gamma_cid14_p1	gamma_cid14_p2	gamma_cid14_p3	gamma_cid14_p4	gamma_cid14_p5
0.5	-0.1696676583529284	0.02992781747227125	0.8062215599684468	0.9149708918470404	-0.2240870926483106	-0.1232002246225314	-0.6469900541884063	0.9479285575637778	0.9479285575637779	-0.04443967237987841	0.1745303347657561	0.2938083126642956	0.1364580351150106	-0.4339285274804672	-0.2047549630176682	-0.5023158583472968	1.934520205362581	-0.006494412976814123	0.1718604556630756	-0.738184894971781	1.917404843194186	1.917404843194186	-0.4689126585979884	-3.22879950701951e-05	0.5298665727176792	0.1983122455660905	-0.2131538942222155	0.02796671718653286	0.01509182980187939	-0.2651364579446963	-0.01757474195874059	-0.00674688505042393	0.2482589128628347	-8.775537166278514	-48.44111146310731	-10.66074992905937	1.263600454007581	-2.788895620250833	-639.5577391257356	48.66472669287615	0.3602019459612287	0.5860091447143265	-0.4346353712089969	-1.288115242460016	-0.2444822525795597	-0.6702944193774836	1.80763989382471	-1.324403776922115	-1.324403776922114	0.4033040859709648	-0.0142121109771735	-0.5554298490791788	-0.382288507918958	-1.414881688709665e-07	-1.429315787848275e-07	5.915710274539386e-07	-1.509887427732377e-06	2.938348360376423e-08	-2.768799503844966e-07	4.616282531879173e-07
0.51	-0.1739879177500255	0.02790975991867109	0.8011778476659396	0.9342485414168089	-0.2241650562437643	-0.121514025777373	-0.654280973288628	0.9670336853748839	0.9670336853748838	-0.04910575425435743	0.1745301006447714	0.2990780596815513	0.1384201824672935	-0.4300501391732399	-0.1988397046007147	-0.5063133502580747	1.920747494909733	-0.009091055603611077	0.1653968220956407	-0.7199085507892597	1.903362664488915	1.903362664488914	-0.4642578062474619	-1.225901130961823e-05	0.5240028735595827	0.1940778612243602	-0.2202061726661539	0.02939561060284317	0.01505026103861612	-0.2692872228536226	-0.01918912667160079	-0.006304825120885268	0.2546305324556983	-7.818861633961521	-49.28134555792659	-10.80077140161464	1.497111803324724	-2.655566661082795	-644.6525355538315	48.64487695747456	0.4126257246833505	0.596815739039942	-0.3653735209370515	-1.461199825571149	-0.2663489478139517	-0.6320222948693769	1.851187822958102	-1.482804013397257	-1.482804013397355	0.5035444110396221	0.01017436498878412	-0.6138599332475413	-0.4499978602728779	-1.444644599168117e-07	-1.502294919462937e-07	5.409852980257063e-07	-1.573317341931629e-06	3.737824463622655e-08	-2.702420177562234e-07	3.93929656559996e-07
0.52	-0.1782671995737342	0.0259513612590113	0.7960975469603397	0.953380593706274	-0.2242688050015029	-0.1198919881617776	-0.6613864177185261	0.9859906555797234	0.9859906555797239	-0.05372389388504211	0.1745300796060111	0.3042867657104114	0.1403387890835646	-0.4257330128028188	-0.1928231842295957	-0.5096335389658472	1.905400749301928	-0.01165144543377562	0.1590282097504907	-0.7010899609070479	1.887773321940938	1.887773321940937	-0.4593242098390902	1.03284498951431e-05	0.5176583750385796	0.1896040983637172	-0.2272584511100939	0.03082450401915377	0.01500869227535485	-0.273437987762549	-0.0208035113844608	-0.005862765191346112	0.2610021520485606	-6.919948193248993	-50.11848439235359	-10.93564021685059	1.724534822337348	-2.555927835666466	-649.708637910674	48.68395067946447	0.4479495585999653	0.6062615355474418	-0.2991747306079563	-1.602922273451504	-0.2372316932530742	-0.6512901749204779	1.916089033762833	-1.633836545463178	-1.63383654546318	0.4590528975400224	-0.01370041548834897	-0.651589721660532	-0.4301642117015316	-1.425273464741675e-07	-1.62537994947161e-07	3.547258720214916e-07	-1.693719134228668e-06	6.154275934530435e-08	-2.58564751973382e-07	2.331786957537167e-07
0.53	-0.182501220194748	0.02405358488541953	0.7909874622198392	0.9723514856387442	-0.2243979119140279	-0.1183326751982644	-0.6683010422720931	1.004784184011218	1.004784184011217	-0.05829102310745049	0.1745300418482972	0.3094297178774119	0.1422115427667513	-0.4210022138369466	-0.186719559909234	-0.5122659222096352	1.888521493664353	-0.01415700120437638	0.1528376696728407	-0.6817581427958459	1.87068143272546	1.87068143272546	-0.4540734204861409	-8.374382309329757e-06	0.5108607026902161	0.1849176426561548	-0.234132811887773	0.03198981741152759	0.01504335564498698	-0.2779337725698226	-0.02219392152998067	-0.00548257843368625	0.267213068532501	-6.079608294415492	-50.89995780630208	-11.09189891258481	1.960240068284045	-2.453571415219754	-654.9003329565054	48.76476695180083	0.4959618552025662	0.6143073142552132	-0.2276975688158282	-1.768872185993994	-0.2555149784299259	-0.6026941211349188	1.95324925137189	-1.78447655249788	-1.784476552497766	0.5623642318008174	0.00513323507060842	-0.7045747920166228	-0.492403563991705	-1.446893226728673e-07	-1.71792928633729e-07	2.489957833128369e-07	-1.790369646843548e-06	7.450704337690212e-08	-2.462984451067016e-07	1.231406337584202e-07
